# xmcd
#
# Track frame offsets:
#	150
#	9150
#	22550
#	34438
#	47047
#	55208
#
# Disc length: 885 seconds
#
# Revision: 1
# Processed by: cddbd v1.5.2PL0 Copyright (c) Steve Scherf et al.
# Submitted via: audiograbber 1.83.01
#
DISCID=3b037306
DTITLE=Sweetback Sisters - Bang
DYEAR=2006
DGENRE=Country
TTITLE0=Everlovin'
TTITLE1=I've Forgotten More
TTITLE2=Silver Tongue and Gold-Plated Lies
TTITLE3=The Box
TTITLE4=Kansas City Star
TTITLE5=Arkansas Sheik
EXTD=
EXTT0=
EXTT1=
EXTT2=
EXTT3=
EXTT4=
EXTT5=
PLAYORDER=
